<svg width="95" height="87" viewBox="0 0 95 87" fill="none" xmlns="http://www.w3.org/2000/svg">
<path d="M93.2413 22.9684L55.3887 1.0968C54.5118 0.589966 53.4312 0.589966 52.5538 1.09583L26.918 15.8878C25.8189 15.5563 24.584 15.5328 23.0342 17.0123C22.2964 17.7174 21.8111 18.6696 21.8155 19.6901C21.8257 21.8737 23.5982 23.6403 25.7838 23.6403C27.6631 23.6403 29.2286 22.3302 29.6392 20.5763L52.5518 7.35559C53.4293 6.84973 54.5098 6.84973 55.3868 7.35657L72.7823 17.4078C73.2545 17.6808 73.2545 18.3624 72.7825 18.6354L42.0015 36.4274C41.5626 36.6813 41.0215 36.6813 40.5826 36.4274L35.1216 33.2682C34.649 32.9952 34.65 32.3126 35.1236 32.0406L53.6465 21.3961C54.7357 21.7252 55.9539 21.7565 57.492 20.3209C58.2562 19.608 58.763 18.6305 58.7557 17.5856C58.7403 15.4069 56.9693 13.6456 54.7874 13.6456C52.9112 13.6456 51.3484 14.9518 50.9346 16.7013L25.3345 31.4127C24.3878 31.9567 24.3858 33.3214 25.3311 33.8683L39.8721 42.2804C40.7501 42.7882 41.8321 42.7882 42.71 42.2809L77.8433 21.9718C78.7208 21.4645 79.8023 21.4645 80.68 21.9718L85.4654 24.7369C85.9376 25.0099 85.9376 25.6915 85.4651 25.964L42.7198 50.6432C41.8428 51.1495 40.7618 51.1495 39.8848 50.6432L9.78473 33.2599C9.31256 32.9869 9.31256 32.3053 9.78522 32.0323L13.6358 29.8102C13.9981 29.9196 14.3746 29.9957 14.7725 29.9957C16.9644 29.9957 18.7413 28.2189 18.7413 26.027C18.7413 23.8356 16.9644 22.0587 14.7725 22.0587C12.8946 22.0587 11.3301 23.3668 10.9185 25.1193L2.00641 30.2614C1.12897 30.7677 0.58844 31.7037 0.58844 32.7169V61.8248C0.58844 62.8375 1.12897 63.7736 2.00592 64.2799L13.5484 70.944C13.9605 72.6959 15.525 74.004 17.4029 74.004C19.5943 74.004 21.3712 72.2277 21.3712 70.0358C21.3712 67.8439 19.5943 66.067 17.4029 66.067C17.0049 66.067 16.6285 66.1432 16.2662 66.2526L7.4278 61.149C6.55084 60.6427 6.01031 59.7067 6.01031 58.694V38.569C6.01031 38.0236 6.60114 37.6823 7.0733 37.9552L37.1749 55.3375C38.0518 55.8439 38.5919 56.7799 38.5919 57.7921V77.9147C38.5919 78.4601 38.001 78.8014 37.5289 78.5284L32.0494 75.3649C31.6109 75.1115 31.3409 74.6437 31.3409 74.1373V61.9723C31.3409 60.9606 30.8018 60.0255 29.9258 59.5187L19.0176 53.2072C18.5421 51.1686 16.5074 49.7291 14.232 50.2452C12.7969 50.5709 11.629 51.7345 11.3004 53.1691C10.7042 55.7692 12.6631 58.0768 15.1612 58.0768C15.5562 58.0768 15.9307 58.0016 16.2906 57.8937L25.2115 63.0553C25.6495 63.3082 25.919 63.776 25.919 64.2819V76.464C25.919 77.4777 26.46 78.4142 27.3384 78.92L39.8863 86.151C40.7628 86.6564 41.8423 86.6559 42.7188 86.15L93.2403 56.985C94.1175 56.4786 94.6578 55.5426 94.6578 54.5299V25.4225C94.6578 24.4103 94.1177 23.4747 93.2413 22.9684ZM89.2359 52.2174C89.2359 52.7238 88.9659 53.1915 88.5272 53.4449L57.7376 71.2198C57.2652 71.4928 56.6746 71.152 56.6746 70.6061V64.2804C56.6746 63.7736 56.9449 63.3058 57.3839 63.0524L74.8348 52.986C75.9112 53.3097 77.1104 53.34 78.6258 51.9581C79.4205 51.2335 79.9517 50.2238 79.9373 49.1481C79.9085 46.9811 78.1431 45.2335 75.9693 45.2335C74.0909 45.2335 72.5262 46.5426 72.1148 48.2955L52.671 59.5123C51.7935 60.0187 51.2527 60.9547 51.2527 61.9679V74.1451C51.2527 74.6515 50.9825 75.1193 50.544 75.3727L45.0767 78.5289C44.6046 78.8019 44.0137 78.4606 44.0137 77.9152V57.7931C44.0137 56.7804 44.5538 55.8444 45.4312 55.338L88.1729 30.6613C88.6453 30.3883 89.2359 30.7291 89.2359 31.275V52.2174Z" fill="#040000"/>
</svg>
